<svg xmlns="http://www.w3.org/2000/svg" xmlns:xlink="http://www.w3.org/1999/xlink" width="32" height="32" viewBox="0 0 32 32">
  <defs>
    <clipPath id="clip-path">
      <circle id="Ellipse_56" data-name="Ellipse 56" cx="16" cy="16" r="16" transform="translate(257 194)" fill="#fff"/>
    </clipPath>
  </defs>
  <g id="FIFA" transform="translate(-257 -194)" clip-path="url(#clip-path)">
    <g id="Flag_of_FIFA" transform="translate(257 199.333)">
      <rect id="rect3033" width="31.976" height="33.31" transform="translate(0.012 -5.988)" fill="#093697" stroke="#093697" stroke-width="0.024"/>
      <g id="g2826" transform="translate(-38.014 19.433)">
        <g id="g3016" transform="translate(44.16 -11.925)">
          <g id="g2880" transform="translate(0 0)">
            <path id="path2882" d="M0,0V6.318H2V4.037H3.382l.539-1.381H2V1.374H4.339L4.85,0H0" fill="#fff" fill-rule="evenodd"/>
          </g>
          <g id="g2884" transform="translate(5.457 0)">
            <path id="path2886" d="M0,0,0,6.318H1.969V0H0" transform="translate(0.003)" fill="#fff" fill-rule="evenodd"/>
          </g>
          <g id="g2888" transform="translate(12.667 0)">
            <path id="path2890" d="M.359.61l.76-2.631L1.906.61ZM2.175-3.645H.127L-2.144,2.674H-.238l.245-.85H2.23l.257.85H4.451L2.175-3.645" transform="translate(2.144 3.645)" fill="#fff" fill-rule="evenodd"/>
          </g>
          <g id="g2892" transform="translate(8.791 0)">
            <path id="path2894" d="M0,0V6.318H1.994V4.037H3.379l.543-1.381H1.994V1.374H4.339L4.854,0H0" fill="#fff" fill-rule="evenodd"/>
          </g>
          <g id="g2896" transform="translate(18.235 0)">
            <path id="path2898" d="M.087.1H.224A.446.446,0,0,0,.289.091.178.178,0,0,0,.343.076.089.089,0,0,0,.381.038.131.131,0,0,0,.395-.028.107.107,0,0,0,.38-.088.1.1,0,0,0,.341-.122.157.157,0,0,0,.286-.139a.554.554,0,0,0-.059,0H.087ZM-.07-.261H.242a.392.392,0,0,1,.23.055A.219.219,0,0,1,.55-.016.208.208,0,0,1,.494.145.281.281,0,0,1,.332.209L.556.575H.4L.18.214H.087v.36H-.07ZM.215.754A.548.548,0,0,0,.433.711.55.55,0,0,0,.609.586.624.624,0,0,0,.73.4.659.659,0,0,0,.773.16.656.656,0,0,0,.73-.079.614.614,0,0,0,.609-.267.536.536,0,0,0,.433-.391.548.548,0,0,0,.215-.435.551.551,0,0,0,0-.391.54.54,0,0,0-.18-.267.612.612,0,0,0-.3-.079.638.638,0,0,0-.343.16.641.641,0,0,0-.3.4.622.622,0,0,0-.18.586.553.553,0,0,0,0,.711.551.551,0,0,0,.215.754ZM.215.9A.716.716,0,0,1-.073.838.751.751,0,0,1-.307.68.731.731,0,0,1-.464.446.7.7,0,0,1-.522.16.7.7,0,0,1-.464-.127.744.744,0,0,1-.307-.361.775.775,0,0,1-.073-.519.7.7,0,0,1,.215-.577.69.69,0,0,1,.5-.519a.743.743,0,0,1,.234.158.753.753,0,0,1,.158.234A.713.713,0,0,1,.952.16.716.716,0,0,1,.894.446.739.739,0,0,1,.736.68.721.721,0,0,1,.5.838.706.706,0,0,1,.215.9" transform="translate(0.522 0.577)" fill="#fff"/>
          </g>
        </g>
      </g>
    </g>
  </g>
</svg>
