<svg xmlns="http://www.w3.org/2000/svg" xmlns:xlink="http://www.w3.org/1999/xlink" width="16" height="16" viewBox="0 0 16 16">
  <defs>
    <clipPath id="clip-path">
      <circle id="Ellipse_9" data-name="Ellipse 9" cx="8" cy="8" r="8" fill="#fff"/>
    </clipPath>
  </defs>
  <g id="Mask_Group_2" data-name="Mask Group 2" clip-path="url(#clip-path)">
    <g id="saudi_arabia" transform="translate(-1 1.667)">
      <path id="Path_355" data-name="Path 355" d="M24.749,16.5V0H0V16.5Z" transform="translate(-3.69 -1.754)" fill="#006c35"/>
      <path id="Path_356" data-name="Path 356" d="M14.366,2.933a3.082,3.082,0,0,1,.391-.266.793.793,0,0,1-.289.394c-.064.05-.035.141-.044.211q-.051-.012-.1-.028c.032.416.079.829.1,1.245a.156.156,0,0,0,.047.128,2.827,2.827,0,0,1,.53.56,1.075,1.075,0,0,1,.114.28,1.539,1.539,0,0,0,.015-.491q-.1-.948-.189-1.9a1.276,1.276,0,0,1-.009-.236A.147.147,0,0,1,15.08,2.7a.365.365,0,0,1,.09.136.837.837,0,0,1,.1.419c-.035-.011-.07-.025-.108-.039.052.43.1.859.137,1.292a3.368,3.368,0,0,1,0,.873,1.05,1.05,0,0,1-.417.688,1.878,1.878,0,0,1-.65.247.6.6,0,0,1-.28,0c.1-.053.2-.091.306-.136a2.665,2.665,0,0,0,.426-.222,1.37,1.37,0,0,0,.35-.288,1.672,1.672,0,0,0-.583-.793,5.077,5.077,0,0,1-.023.918.315.315,0,0,1-.09.186,2.932,2.932,0,0,1-.05-.391q-.039-.425-.07-.851A.176.176,0,0,0,14.13,4.6c-.172-.144-.332-.3-.5-.455.006.175.032.347.044.518.02.233.023.466.047.7a1.076,1.076,0,0,1-.044.491.445.445,0,0,1-.361.283,1.013,1.013,0,0,1-.259-.014.289.289,0,0,1-.2-.161c-.05-.094-.076-.2-.117-.3a.386.386,0,0,0-.21.092,1.08,1.08,0,0,0-.207.424.4.4,0,0,1-.154.227.288.288,0,0,1-.28-.017.539.539,0,0,1-.245-.338c-.038-.105.015-.227-.05-.327a.425.425,0,0,1,0-.294A1.018,1.018,0,0,1,11.877,5l-.5-.432a7.11,7.11,0,0,1-.006,1.195.347.347,0,0,1-.1.213,1.516,1.516,0,0,1-.035-.23q-.061-.657-.1-1.314a.185.185,0,0,0-.052-.139,6.369,6.369,0,0,1-.484-.513,1.29,1.29,0,0,1-.224-.358c-.017-.055-.032-.133.02-.175a.456.456,0,0,1,.169.061,1.179,1.179,0,0,1,.265.211.313.313,0,0,1,.067.13l-.146,0a1.938,1.938,0,0,0,.35.383c-.012-.371-.052-.746-.07-1.117a.218.218,0,0,1,.035-.147.3.3,0,0,1,.125-.067,1.207,1.207,0,0,1,.175.394.563.563,0,0,1,.009.172c-.035-.008-.07-.019-.1-.031.023.3.055.6.076.9a.638.638,0,0,0,.017.128.328.328,0,0,0,.067.072c.207.175.414.349.624.518.125-.108.248-.219.373-.324a.684.684,0,0,0,.082-.075c.023-.025.015-.061.015-.091-.041-.363-.07-.726-.1-1.09-.009-.133-.029-.263-.029-.394a.152.152,0,0,1,.137-.158c.035,0,.05.036.067.058a1.2,1.2,0,0,1,.128.33.381.381,0,0,1,0,.172l-.1-.044c.044.341.079.682.111,1.023.09-.067.172-.144.256-.216s.192-.158.283-.244c-.108-.116-.221-.225-.332-.338a.62.62,0,0,1-.184-.244A.428.428,0,0,1,12.766,3a.848.848,0,0,1,.35.177,2.049,2.049,0,0,1,.2.183c-.006-.144-.023-.288-.035-.432a.235.235,0,0,1,.032-.161.355.355,0,0,1,.122-.069,1.065,1.065,0,0,1,.172.377.556.556,0,0,1,.015.183l-.108-.025c.012.111.023.219.038.33.137-.1.262-.219.4-.322.047-.044.131-.078.131-.155a2.432,2.432,0,0,1,0-.252.146.146,0,0,1,.152-.125.744.744,0,0,1,.134.222Zm-.711.8c-.023.025-.067.047-.064.089a.418.418,0,0,0,.082.094c.169.153.329.313.507.452-.006-.164-.023-.324-.032-.488s-.02-.344-.038-.516C13.952,3.479,13.809,3.612,13.655,3.734Zm-.428-.3.111.125c0-.042,0-.083,0-.125Zm-.408,1.012c-.029.025-.064.053-.061.094a2.692,2.692,0,0,1-.032.632.236.236,0,0,1-.087.122c-.047-.2-.05-.41-.085-.615-.125.1-.245.208-.361.316a.6.6,0,0,1,.157.258.39.39,0,0,1-.122.4.954.954,0,0,1-.513.161.926.926,0,0,0,.119.338.187.187,0,0,0,.189.092.268.268,0,0,0,.16-.172,2.318,2.318,0,0,1,.21-.424.4.4,0,0,1,.318-.205c.044,0,.1-.011.128.036a2.5,2.5,0,0,0,.152.3.371.371,0,0,0,.528.031.2.2,0,0,0,.044-.177c-.067-.552-.117-1.109-.175-1.661-.2.152-.379.313-.568.471Zm-1.029.943a.423.423,0,0,0-.064.147.623.623,0,0,0,.379-.08c.035-.022.076-.058.067-.105a.343.343,0,0,0-.157-.216,2.152,2.152,0,0,0-.224.255ZM6.316,2.7c.035-.022.067.017.09.042a1.069,1.069,0,0,1,.187.277l-.108.017c.009.166.149.28.189.438a.614.614,0,0,1,.012.3.353.353,0,0,1-.277.272.529.529,0,0,1-.461-.13.713.713,0,0,1-.143-.288.893.893,0,0,1-.189.371.684.684,0,0,1-.2.147,7.877,7.877,0,0,1,.026,1.112.39.39,0,0,1-.114.3A3.837,3.837,0,0,1,5.269,5.1c-.032-.308-.055-.615-.087-.923a.548.548,0,0,1-.259-.108.518.518,0,0,1-.146-.419,1.751,1.751,0,0,1,.067-.344.422.422,0,0,0-.1.155,4.654,4.654,0,0,1-.187.557.253.253,0,0,1-.169.144.3.3,0,0,1-.277-.058A.479.479,0,0,1,4,3.806a.644.644,0,0,1,.035-.324.32.32,0,0,1,.143-.125A.5.5,0,0,0,4.1,3.54a.923.923,0,0,0,.023.283.272.272,0,0,0,.067.155.187.187,0,0,0,.245-.006.406.406,0,0,0,.07-.136c.058-.177.1-.36.178-.532a.506.506,0,0,1,.341-.316c-.017.2-.108.38-.114.579a.372.372,0,0,0,.064.255.327.327,0,0,0,.184.1c-.017-.269-.044-.538-.061-.81a1.311,1.311,0,0,1-.006-.3c.015-.069.09-.094.149-.116a.991.991,0,0,1,.189.557l-.111-.025c.023.23.047.463.073.693a.437.437,0,0,0,.239-.175A.667.667,0,0,0,5.7,3.177c-.023-.08-.061-.155-.079-.238a.166.166,0,0,1,.108-.183c.032-.014.047.025.061.047a1.321,1.321,0,0,1,.079.3,2.364,2.364,0,0,0,.05.408.5.5,0,0,0,.219.272.424.424,0,0,0,.28.042.126.126,0,0,0,.1-.094.39.39,0,0,0-.047-.261,2.479,2.479,0,0,1-.236-.557A.206.206,0,0,1,6.316,2.7Z" transform="translate(-0.575 0.334)" fill="#fff"/>
      <path id="Path_357" data-name="Path 357" d="M10.3,2.9a.552.552,0,0,1,.242-.213,1.093,1.093,0,0,1-.1.189.3.3,0,0,0-.032.15A.95.95,0,0,0,10.6,3a.248.248,0,0,1-.085.141.165.165,0,0,1-.2.017A.217.217,0,0,1,10.3,2.9ZM6.687,2.78A.271.271,0,0,1,6.815,2.7,1.066,1.066,0,0,1,7,3.1a.456.456,0,0,1,0,.166l-.1-.033c.038.269.085.535.117.8.154-.075.3-.166.458-.233a.5.5,0,0,1,.157-.039.19.19,0,0,1-.09.108c-.169.086-.341.161-.507.255.015.133.029.269.047.4.076-.1.143-.219.274-.25.006.072-.017.158.035.216a.223.223,0,0,0,.268-.033A1.249,1.249,0,0,1,7.7,4.152c.032.014.073.019.085.058a.509.509,0,0,1,0,.3.39.39,0,0,1-.216.244.25.25,0,0,1-.2.019.434.434,0,0,1-.16-.152.876.876,0,0,0-.111.3,1.189,1.189,0,0,1-.248.654,1.934,1.934,0,0,1-1.011.632,2.206,2.206,0,0,1-.685.105.718.718,0,0,1-.361-.1c-.047-.031-.087-.072-.134-.1a.992.992,0,0,0-.181.006,2.063,2.063,0,0,1-.434-.014c.175-.058.353-.1.525-.166a1.394,1.394,0,0,1,.175-.909A.94.94,0,0,1,4.9,4.848a1.472,1.472,0,0,0-.137.308,1.3,1.3,0,0,0,.012.71c.119-.039.236-.091.35-.141a4.993,4.993,0,0,0,.767-.4.849.849,0,0,0,.245-.227.283.283,0,0,0,.023-.155,1.77,1.77,0,0,1-.379.08.326.326,0,0,1-.227-.086A.282.282,0,0,1,5.5,4.7a.455.455,0,0,1,.149-.28A.338.338,0,0,1,6,4.39a.524.524,0,0,1,.221.255c.163-.061.274-.205.434-.274a.367.367,0,0,0,.061.247c.038.047.1.044.154.05-.009-.133-.029-.263-.047-.394-.055-.435-.111-.873-.157-1.311a.32.32,0,0,1,.02-.183Zm-1,1.894c-.015.03.02.05.044.061a.541.541,0,0,0,.274-.006A.271.271,0,0,0,5.83,4.62c-.05,0-.119,0-.14.053Zm.635.18a.652.652,0,0,1-.02.261.821.821,0,0,1-.265.349,4.042,4.042,0,0,1-.705.416,2.932,2.932,0,0,1-.341.164,2.945,2.945,0,0,0,.443-.025,2.086,2.086,0,0,0,.647-.161,1.819,1.819,0,0,0,.595-.369A.783.783,0,0,0,6.9,5.122a1.041,1.041,0,0,0,.02-.213.551.551,0,0,1-.259-.044A.435.435,0,0,1,6.52,4.7a1.434,1.434,0,0,1-.2.155Zm2.37-2.082a.1.1,0,0,1,.128-.006.294.294,0,0,1,.128.258.484.484,0,0,1-.038.13.683.683,0,0,0-.038-.189c-.044-.061-.125-.072-.178-.122A.046.046,0,0,1,8.695,2.771Z" transform="translate(-0.558 0.343)" fill="#fff"/>
      <path id="Path_358" data-name="Path 358" d="M9.9,2.789c.006-.039.044-.08.085-.058a.555.555,0,0,1,.248.274c-.041,0-.082,0-.119-.006a1.59,1.59,0,0,0,.073.227,1.392,1.392,0,0,1,.122.322.413.413,0,0,1-.746.322.806.806,0,0,1-.114-.241.709.709,0,0,1-.312.455.525.525,0,0,1-.554-.019.355.355,0,0,1-.166-.291,2.409,2.409,0,0,1,.079-.5.365.365,0,0,0-.1.147,3.778,3.778,0,0,1-.2.56.3.3,0,0,1-.224.166.287.287,0,0,1-.256-.114.484.484,0,0,1-.061-.263.913.913,0,0,1,.1-.4A1.084,1.084,0,0,0,7.8,3.9a.189.189,0,0,0,.251.094.4.4,0,0,0,.149-.23,3.627,3.627,0,0,1,.216-.541.586.586,0,0,1,.143-.191.251.251,0,0,1,.119-.036,1.807,1.807,0,0,1-.108.441.447.447,0,0,0,.055.394.434.434,0,0,0,.426.1A.533.533,0,0,0,9.4,3.455a.649.649,0,0,0-.055-.371c-.029-.058-.085-.119-.061-.191a.244.244,0,0,1,.128-.161.537.537,0,0,1,.09.227A2.518,2.518,0,0,0,9.6,3.53a.451.451,0,0,0,.21.263.365.365,0,0,0,.318.008.144.144,0,0,0,.061-.166,4.859,4.859,0,0,0-.242-.549.551.551,0,0,1-.041-.3Zm1.959-.042a.139.139,0,0,1,.178.058.066.066,0,0,1-.032.075.558.558,0,0,1-.12-.047,1.519,1.519,0,0,0-.1.3.687.687,0,0,0-.07-.147c-.041-.055-.1-.083-.152-.133a.069.069,0,0,1,.082-.08.3.3,0,0,1,.14.13c.017-.058.026-.128.079-.161Zm-7.84.233a.513.513,0,0,1,.251-.233,1.534,1.534,0,0,1-.1.191.294.294,0,0,0-.029.15.864.864,0,0,0,.2-.042.3.3,0,0,1-.09.147.166.166,0,0,1-.187.022.207.207,0,0,1-.041-.236Z" transform="translate(-0.573 0.358)" fill="#fff"/>
      <path id="Path_359" data-name="Path 359" d="M7.75,2.826c.017-.092.154-.089.2-.019.029.05.044.1.073.152a.215.215,0,0,1,.041.161c-.026.091-.093.164-.1.261.032-.014.064-.031.1-.047-.009.05,0,.116-.052.144a.1.1,0,0,1-.137-.1c.009-.125.131-.222.093-.355a.8.8,0,0,1-.5.341,2.766,2.766,0,0,0,.274-.205.737.737,0,0,0,.122-.175c-.044-.044-.12-.086-.108-.158Zm.085-.008a.23.23,0,0,0,.076.072.113.113,0,0,0-.076-.072ZM7.1,2.885c.044-.011.1-.028.131.011a.409.409,0,0,1,.119.391c-.023-.053-.041-.108-.067-.158-.044-.094-.14-.15-.184-.244Zm-.938.058a.2.2,0,0,1,.055.169c-.07.011-.14.031-.21.047A.073.073,0,0,1,5.922,3.1a.445.445,0,0,1,.02-.122c.015.042.029.083.044.128C6,3.1,6.024,3.1,6.042,3.087V2.973h.041l.017.1.067-.008c0-.042,0-.083,0-.125Zm5.92.091a.617.617,0,0,1,.175-.022.281.281,0,0,1-.1.08,5.859,5.859,0,0,0-.6.241l.052.105a.221.221,0,0,1-.137-.047.078.078,0,0,1,0-.116.467.467,0,0,1,.1-.055c.166-.061.332-.13.5-.186Zm-3.046.144a.541.541,0,0,1,.073-.047.436.436,0,0,0,.055.208.124.124,0,0,1-.073.177.188.188,0,0,1-.175-.058c-.038.033-.079.078-.134.069a.169.169,0,0,1-.131-.213.232.232,0,0,1,.1-.13.556.556,0,0,0-.015.183c.012.042.061.042.1.055.012-.067.015-.136.032-.205.006-.036.05-.039.073-.055a.84.84,0,0,0,.02.172c.015.042.064.055.1.075a1,1,0,0,0-.017-.23Zm-3.025.105c.044,0,.1-.008.131.028a.4.4,0,0,1,.111.385.637.637,0,0,0-.14-.261.264.264,0,0,1-.1-.152Zm6.033.349a.377.377,0,0,1,.073-.061.45.45,0,0,0,.052.194c.029.061.029.158-.044.186a.2.2,0,0,1-.192-.044.187.187,0,0,1-.157.058.176.176,0,0,1-.114-.208c.006-.061.058-.1.1-.139a.476.476,0,0,0-.017.191c.015.042.064.033.1.042a.862.862,0,0,1,.035-.213.3.3,0,0,1,.073-.039.424.424,0,0,0,.023.191c.02.036.064.039.1.05,0-.069-.023-.139-.029-.208Zm2.422.1a.066.066,0,0,1,.064-.089.209.209,0,0,1,.163.119.485.485,0,0,1,.041.391c-.026-.114-.023-.258-.128-.333a.492.492,0,0,1-.14-.089Zm-4.025.25a.134.134,0,0,1,.131-.036.164.164,0,0,1,0,.213.451.451,0,0,1-.361.164,1.754,1.754,0,0,0,.256-.141c.035-.025.029-.072.035-.111-.041.006-.082.014-.119.019a.56.56,0,0,1,.058-.108Zm1.959.086c.026-.006.061-.022.079.006-.02.067-.09.094-.146.122-.21.1-.414.205-.621.311-.009-.019-.02-.036-.029-.055a3.278,3.278,0,0,1,.37-.219,3.01,3.01,0,0,1,.347-.164Zm-3.949.164a.228.228,0,0,1,.058-.1,1.648,1.648,0,0,1,.37.607,5.855,5.855,0,0,1,.131.674.711.711,0,0,0,.12.324.6.6,0,0,0,.192.141.266.266,0,0,1,.1-.191,2.676,2.676,0,0,1,.673-.294c-.189-.006-.382,0-.571,0a2.83,2.83,0,0,1-.461-.017A.356.356,0,0,1,9.1,5.2a.727.727,0,0,1,.309-.244,2.854,2.854,0,0,1,.551-.225c-.05-.053-.125-.111-.1-.2a.268.268,0,0,1,.233-.2.709.709,0,0,1,.347.111c.064.042.143.086.166.164a.29.29,0,0,1-.064.15c-.067.083-.187.078-.286.089-.006.067-.015.147-.082.177q-.03-.078-.064-.155a1.5,1.5,0,0,0-.647.319c.536,0,1.07-.011,1.606-.008.035,0,.07.006.1.011-.023.141-.166.211-.291.241-.254.055-.507.105-.761.155a2.233,2.233,0,0,0-.554.169.451.451,0,0,0-.16.141A2.332,2.332,0,0,0,9.8,6c.044.011.1.019.117.072a.193.193,0,0,1-.047.211.668.668,0,0,1-.256-.014.869.869,0,0,1-.592-.358,1.136,1.136,0,0,1-.157-.5,1.665,1.665,0,0,1-.221.266,2.73,2.73,0,0,1-.787.493.351.351,0,0,1-.324,0,.374.374,0,0,1-.125-.2,3.107,3.107,0,0,1-.831.322,2.8,2.8,0,0,1-.548.055c.1-.047.2-.083.291-.122.321-.133.635-.283.944-.444a.341.341,0,0,0,.111-.078,1.479,1.479,0,0,1,.076-.244.556.556,0,0,1,.207-.222,1.373,1.373,0,0,0-.131.38,2.829,2.829,0,0,0,.522-.4c.041-.044.1-.1.076-.166-.029-.094-.079-.177-.114-.269a.918.918,0,0,1-.1-.419.261.261,0,0,1,.061-.119.937.937,0,0,1,.283.349l-.082.017a2.256,2.256,0,0,1,.154.4.377.377,0,0,1-.087.316,5,5,0,0,1-.673.549.263.263,0,0,0,.134.05.8.8,0,0,0,.277-.072,3.947,3.947,0,0,0,.854-.6,3.483,3.483,0,0,0-.312-.743.5.5,0,0,1-.061-.291ZM10,4.576a.279.279,0,0,0,.128.1.261.261,0,0,0,.213-.08.423.423,0,0,0-.251-.1.09.09,0,0,0-.09.08ZM4.442,4.232a.069.069,0,0,1,.067-.067c.1-.011.169.069.23.133a.115.115,0,0,1,.038.125c-.012.053-.073.05-.114.061-.087.006-.122.1-.189.141a.692.692,0,0,1-.466.141.3.3,0,0,1,.172-.1.785.785,0,0,0,.3-.213.48.48,0,0,1-.041-.219Zm.055.011a.337.337,0,0,0,.044.139q.027-.059.05-.119A.922.922,0,0,0,4.5,4.243Zm.131.18.1-.011a.444.444,0,0,0-.032-.122c-.041.031-.047.086-.064.133Z" transform="translate(-0.572 0.371)" fill="#fff"/>
      <path id="Path_360" data-name="Path 360" d="M9.386,3.829a.244.244,0,0,1,.07-.05c0,.1.07.172.079.266s-.117.147-.192.1c-.023-.017-.044-.036-.064-.053-.041.036-.085.089-.146.075a.179.179,0,0,1-.125-.213.232.232,0,0,1,.1-.136A.7.7,0,0,0,9.086,4c.006.044.055.058.09.078a1.229,1.229,0,0,0,.041-.211c.006-.039.052-.044.079-.064a.7.7,0,0,0,.017.175c.017.039.058.058.09.08.035-.075-.015-.15-.017-.225Zm-4.652.355a.528.528,0,0,1,.157-.055.064.064,0,0,1,.038.111.909.909,0,0,1-.2.1c-.163.078-.326.152-.487.238a.169.169,0,0,1-.117.011.276.276,0,0,1,.1-.119C4.393,4.364,4.562,4.27,4.734,4.184Zm6.129.086c.012-.055.076-.064.122-.08a.486.486,0,0,0,.07.23l-.076.008a.362.362,0,0,1-.131.139.617.617,0,0,1-.309.042c.111-.031.248-.039.321-.139.05-.058,0-.133,0-.2Zm2.2.08c.015-.044.067-.044.1-.039a.368.368,0,0,1,.192.141.109.109,0,0,1,.015.144c-.052.042-.137.017-.184.072a.684.684,0,0,1-.571.241.3.3,0,0,1,.175-.1.8.8,0,0,0,.3-.213.414.414,0,0,1-.032-.244Zm.055.033a.636.636,0,0,0,.035.147.622.622,0,0,0,.052-.119c-.029-.011-.061-.019-.087-.028Zm.169.061a.861.861,0,0,0-.041.122l.1-.011a.509.509,0,0,0-.032-.114l-.023,0ZM7.55,4.436a.128.128,0,0,1,.189.039c.017.036-.02.064-.035.091a.4.4,0,0,0-.09-.047c-.029-.008-.038.025-.047.044a2.642,2.642,0,0,0-.079.258.718.718,0,0,0-.067-.152.919.919,0,0,0-.137-.119c-.041-.033,0-.105.05-.1.067.008.108.069.154.114A.416.416,0,0,1,7.55,4.436Zm-3.5.482a.552.552,0,0,1,.242-.213,1.117,1.117,0,0,1-.1.191.286.286,0,0,0-.032.147,1.254,1.254,0,0,0,.2-.028.243.243,0,0,1-.087.141.165.165,0,0,1-.192.017.223.223,0,0,1-.026-.255ZM8.7,5.345c.05-.008.108-.03.152.006a.092.092,0,0,1,.017.139c-.061.033-.14.014-.192.061.009.072.064.13.076.2,0,.044-.032.08-.052.116a.628.628,0,0,0-.064-.205c-.023-.044-.058-.089-.047-.141s.073-.086.117-.114A.363.363,0,0,1,8.7,5.345Zm2.235.086a.269.269,0,0,1,.128-.116A.545.545,0,0,0,11,5.462c.023.042.061.072.082.116.006.072-.1.083-.137.039a.178.178,0,0,1-.012-.186Zm-.539-.08a.3.3,0,0,1,.242.042c-.052.108-.175.136-.265.2a.231.231,0,0,1,.006.044.326.326,0,0,0,.187-.022.863.863,0,0,1,.23-.091c-.064.055-.125.111-.189.164a.3.3,0,0,1-.271.036c-.044-.014-.1-.053-.085-.108s.093-.105.149-.147l-.12-.008c.032-.044.061-.1.117-.111Zm2.113.2a.06.06,0,0,1,.038-.094.187.187,0,0,1,.181.114.312.312,0,0,1,.006.291.69.69,0,0,0-.047-.189C12.642,5.612,12.56,5.6,12.508,5.548Zm1.32.042a.777.777,0,0,1,.332-.078.212.212,0,0,1-.108.1c-.181.067-.364.128-.542.2a.919.919,0,0,1-.175.058c-.006-.017-.015-.033-.02-.05a3.829,3.829,0,0,1,.513-.23Zm-.352,3.561h-.9V9.066c.041-.035.1-.083.1-.11,0-.048-.113-.145-.139-.145s-.139.1-.139.145.049.073.09.108l0,0v.088H5.408c.252.25.625.248,1.375.255.669.01.666.01,5.7,0V9.5c-.041.035-.09.083-.09.11,0,.048.107.145.139.145a.306.306,0,0,0,.122-.1h.31a.136.136,0,0,0,.122.055.142.142,0,0,0,.122-.055h.371a.185.185,0,0,0,.148.055c.142-.005.174-.078.174-.328,0-.21-.145-.233-.426-.228Zm.064.423h-.33a.157.157,0,0,0-.243,0h-.3a.362.362,0,0,0-.081-.078v-.09h.961a.277.277,0,0,0,0,.168Z" transform="translate(-0.567 0.796)" fill="#fff"/>
    </g>
  </g>
</svg>
