<svg xmlns="http://www.w3.org/2000/svg" width="22.715" height="22.715" viewBox="0 0 22.715 22.715">
  <path id="Icon_ionic-ios-football" data-name="Icon ionic-ios-football" d="M14.732,3.375A11.357,11.357,0,1,0,26.09,14.732,11.356,11.356,0,0,0,14.732,3.375Zm6.951,4.406a9.752,9.752,0,0,1,1.234,1.5.2.2,0,0,1,.022.191l-.786,2.255a.217.217,0,0,1-.115.126L18.9,13.285a.22.22,0,0,1-.229-.033l-3.09-2.6a.224.224,0,0,1-.076-.169V7.039a.218.218,0,0,1,.1-.18l2.1-1.425a.215.215,0,0,1,.191-.027A9.951,9.951,0,0,1,21.683,7.781Zm-4.035,16.25a.2.2,0,0,1-.142.131,9.814,9.814,0,0,1-2.774.393,9.985,9.985,0,0,1-2.774-.393.226.226,0,0,1-.142-.131l-.9-2.348a.229.229,0,0,1,.011-.18l1.218-2.31a.221.221,0,0,1,.191-.115h4.778a.214.214,0,0,1,.191.115l1.218,2.31a.229.229,0,0,1,.011.18ZM13.968,7.05V10.5a.224.224,0,0,1-.076.169l-3.1,2.594a.22.22,0,0,1-.229.033L7.426,11.86a.215.215,0,0,1-.115-.126l-.786-2.25a.214.214,0,0,1,.022-.191,9.9,9.9,0,0,1,5.034-3.866.215.215,0,0,1,.191.027l2.1,1.425A.181.181,0,0,1,13.968,7.05ZM5,15.175l1.971-1.7a.218.218,0,0,1,.235-.033l2.861,1.3a.219.219,0,0,1,.12.147l.8,3.129a.261.261,0,0,1-.016.158L9.7,20.569a.213.213,0,0,1-.2.115L6.99,20.651a.228.228,0,0,1-.175-.087A9.758,9.758,0,0,1,4.92,15.355.239.239,0,0,1,5,15.175Zm14.764,5.389L18.5,18.172a.2.2,0,0,1-.016-.158l.8-3.129a.219.219,0,0,1,.12-.147l2.861-1.3a.229.229,0,0,1,.235.033l1.971,1.7a.221.221,0,0,1,.076.18,9.73,9.73,0,0,1-1.895,5.209.212.212,0,0,1-.175.087l-2.517.033A.24.24,0,0,1,19.761,20.564Z" transform="translate(-3.375 -3.375)" fill="#bf2154"/>
</svg>
